<svg id="图层_1" data-name="图层 1" xmlns="http://www.w3.org/2000/svg" viewBox="0 0 1000 1000"><defs><style>.cls-1{fill:#f5c01c;}</style></defs><title>qzone</title><path class="cls-1" d="M907.93,461.4c-1.14-6.82-1.14-13.63-2.27-19.31a403,403,0,0,0-28.41-102.26c-9.09-21.59-19.32-38.63-29.54-57.95-5.68-9.09-11.36-18.18-18.18-26.13-7.95-10.23-12.5-14.77-19.31-23.86-6.82-8-14.77-14.77-21.6-22.73-18.17-19.31-50-43.17-72.71-57.94C688.64,133,658,120.54,626.15,110.32c-4.55-1.14-32.95-9.09-32.95-9.09-11.36-1.14-22.72-4.55-35.22-6.82C552.3,93.27,521.62,91,520.48,91H483c-3.41,1.14-18.18,1.14-22.72,2.27-97.72,9.09-184.07,52.27-250,118.17a405.83,405.83,0,0,0-117,247.69c-1.13,4.54-1.13,19.32-2.27,22.72v36.36c1.14,3.41,1.14,18.18,2.27,22.72a401.53,401.53,0,0,0,11.36,62.5c14.78,61.35,43.18,112.48,81.81,160.2l11.36,13.64c4.55,3.4,8,8,11.36,12.49a410.5,410.5,0,0,0,247.7,118.17c4.54,0,19.31,1.13,22.72,2.27h37.49c3.41-1.14,18.18-1.14,22.73-2.27,6.82,0,14.77-1.14,21.59-2.27,40.9-6.82,76.12-18.18,112.48-34.09,43.18-19.32,81.81-47.72,114.75-80.67,65.91-67,108-152.25,117-247.69,0-4.55,1.13-20.45,2.27-22.73ZM800,434.13l-42,34.09c-10.23,7.95-18.18,15.9-28.41,23.86-11.36,9.09-29.54,26.13-40.9,35.22L675,538.66c-5.69,4.55-9.09,5.68-9.09,10.23,0,1.13,1.13,3.41,1.13,5.68,2.27,14.77,17.05,106.8,17.05,110.21v2.28l11.36,75c1.13,8,3.41,19.32,3.41,26.14-2.28,3.4-6.82,8-12.5,6.81-3.41,0-10.22-5.68-12.5-6.81-22.72-13.64-47.72-29.55-70.44-43.18-26.14-15.91-55.68-34.09-82.95-51.13-2.27-1.14-10.22-5.68-11.36-8-2.27,0-3.41-2.27-5.68-2.27L420.5,714.77C392.09,733,361.41,751.13,333,768.18c-3.41,2.27-7.95,5.68-11.36,6.81-18.18,0-13.63-3.41-9.09-37.49,1.13-14.77,21.59-185.2,21.59-192L262.57,483c-9.09-7.95-27.27-25-36.36-31.81l-29.54-21.59c-2.28-1.14-8-4.55-9.09-6.82H402.32c5.68-11.36,19.31-32.95,26.13-46.58,8-15.91,14.77-32.95,22.73-50,4.54-7.95,7.95-15.91,12.49-25l29.54-62.49c6.82-14.78,3.41-12.5,19.32-11.37l63.63,122.71c4.54,8,8,17.05,12.5,25l13.63,23.86c4.55,7.95,10.23,15.91,13.64,23.86,15.9,1.14,33,0,48.85,0H798.85c4.55,0,10.23-1.14,10.23,0,4.54,2.27-4.55,8-9.09,11.36Zm0,0"/><path class="cls-1" d="M559.11,526.16l10.23-10.22,76.12-68.17h-284l186.34,31.81c-9.09,8-37.49,31.82-50,40.9-15.91,13.64-35.22,28.41-50,40.91-14.77,11.36-35.23,28.4-50,40.9L360.28,633a120.36,120.36,0,0,0-12.5,10.22c18.18,1.14,55.67,0,76.13,0H613.65c8,0,30.68,1.14,37.5,0L472.76,604.56c2.28-4.54,75-68.17,86.35-78.4Zm0,0"/></svg>