<svg id="图层_1" data-name="图层 1" xmlns="http://www.w3.org/2000/svg" xmlns:xlink="http://www.w3.org/1999/xlink" viewBox="0 0 1000 1000"><defs><style>.cls-1{fill:none;}.cls-2{fill:#fff;}.cls-3{fill:#d81e06;}.cls-4{clip-path:url(#clip-path);}</style><clipPath id="clip-path"><rect class="cls-1" x="90" y="90" width="819.84" height="820.72"/></clipPath></defs><title>weibo</title><path class="cls-2" d="M463,512.82c-44.23-11.47-94.2,10.65-113,49.15-19.67,39.73-.82,83.56,43.82,97.89,46.29,14.75,100.76-7.78,119.61-50.78,18.43-41.79-4.92-84.79-50.39-96.26Zm0,0"/><path class="cls-2" d="M640.38,491.93c-7.78-2.46-13.1-4.1-9-14.34,9-22.53,9.83-41.78,0-55.7-18-25.81-68-24.58-124.93-.82,0,0-18,7.78-13.51-6.15,8.6-28.26,7.37-51.61-6.15-65.12-31.13-30.72-113.46,1.22-183.91,71.68C250,473.91,219.31,529.61,219.31,578c0,92.56,118.79,148.68,235.11,148.68,152.37,0,254-88.07,254-158.52,0-42.18-36-66.35-68-76.18ZM453.61,685.67c-93,9-172.85-32.77-179-93.39s64.3-117.15,157.29-126.56c93-9,172.85,32.76,179,93.38,6.15,61-64.31,117.56-157.28,126.57Zm0,0"/><path class="cls-3" d="M418.79,576.72c-14.34-6.15-32.77,0-41.78,13.92s-4.92,30.31,9.42,36.86,33.59.42,42.6-13.92,4.51-30.72-10.24-36.86ZM454.42,562c-5.32-2.05-12.28.41-15.56,5.73A9.45,9.45,0,0,0,443,581.63c5.74,2.46,12.7-.41,16-5.73,2.87-5.74.82-11.88-4.51-13.93Zm0,0"/><g class="cls-4"><path class="cls-3" d="M431.9,466.12c-92.58,9-163,66-157.29,126.57,6.15,60.62,86,102.4,179,93.39s163-66,157.28-126.57c-6.14-61-86-102.81-179-93.39Zm81.51,143c-18.85,42.59-73.32,65.53-119.61,50.37-44.64-14.33-63.49-58.16-43.82-97.89,19.25-38.91,69.22-60.62,113-49.15,45.47,11.88,68.82,54.88,50.39,96.67Zm0,0"/><path class="cls-3" d="M499.48,90.52c-226.1,0-409.6,183.5-409.6,409.6s183.5,409.6,409.6,409.6,409.6-183.5,409.6-409.6-183.5-409.6-409.6-409.6ZM454.42,726.63c-116.32,0-235.11-56.12-235.11-148.68,0-48.34,30.72-104,83.56-156.88,70.45-70.45,152.78-102.4,183.91-71.68,13.52,13.51,15.16,37.27,6.15,65.12-4.51,14.34,13.51,6.15,13.51,6.56,56.94-23.76,106.91-25.4,124.93.82,9.83,13.92,8.6,33.17,0,55.7-4.09,10.24,1.23,11.88,9,14.34,32,9.83,68,34,68,76.18-.41,70-101.59,158.52-254,158.52ZM665,433a35.7,35.7,0,0,0-7.37-34.41A34.06,34.06,0,0,0,624,387.89a18.86,18.86,0,0,1-22.12-14.34,18.24,18.24,0,0,1,14.34-21.71A72.35,72.35,0,0,1,685,374a71.23,71.23,0,0,1,15.15,70.46,18.34,18.34,0,0,1-23.34,11.87C667,453,661.68,442.37,665,433Zm107.72,34.4h0a21.5,21.5,0,1,1-41-13.1c11.06-34.41,4.1-74.14-22.11-102.82a104.68,104.68,0,0,0-100.36-32.35,21.37,21.37,0,0,1-9-41.78A148.14,148.14,0,0,1,772.68,467.35Zm0,0"/></g><path class="cls-2" d="M676.84,455.88A18.34,18.34,0,0,0,700.18,444,71.22,71.22,0,0,0,685,373.55a72.35,72.35,0,0,0-68.81-22.12,18.55,18.55,0,0,0-14.34,21.71A18.76,18.76,0,0,0,624,387.48a35,35,0,0,1,41,45.06,18.18,18.18,0,0,0,11.88,23.34Zm0,0"/><path class="cls-2" d="M600.24,277.3a21.37,21.37,0,0,0,9,41.78,106.58,106.58,0,0,1,100.36,32.35,105.18,105.18,0,0,1,22.11,102.82,21.5,21.5,0,1,0,41,13.1c15.57-48.74,5.74-104-31.13-144.59A149.09,149.09,0,0,0,600.24,277.3Zm0,0"/></svg>