<svg id="图层_1" data-name="图层 1" xmlns="http://www.w3.org/2000/svg" xmlns:xlink="http://www.w3.org/1999/xlink" viewBox="0 0 1000 1000"><defs><style>.cls-1{fill:none;}.cls-2{clip-path:url(#clip-path);}.cls-3{fill:#45c45d;}.cls-4{fill:#51c332;}</style><clipPath id="clip-path"><rect class="cls-1" x="114" y="115" width="770.88" height="771.84"/></clipPath></defs><title>WeChat</title><g class="cls-2"><path class="cls-3" d="M499.48,114.93C286.58,114.93,114,287.51,114,500.4S286.58,885.88,499.48,885.88,885,713.3,885,500.4,712.38,114.93,499.48,114.93Zm-69.9,476.28c-20.79,0-37.51-4.25-58.33-8.33L313,612l16.66-50.1C287.94,532.77,263,495.19,263,449.45c0-79.29,75-141.69,166.59-141.69,81.92,0,153.67,49.87,168.09,117a144.15,144.15,0,0,0-16.08-1c-79.1,0-141.58,59.07-141.62,131.86a124.65,124.65,0,0,0,5.16,34.95c-5.12.41-10.31.65-15.55.65Zm245.69,58.38,12.53,41.65-45.67-25.08c-16.68,4.17-33.4,8.33-50,8.33-79.26,0-141.67-54.1-141.67-120.88,0-66.58,62.38-120.89,141.67-120.89,74.88,0,141.54,54.28,141.54,120.89,0,37.6-24.92,70.86-58.39,96Zm0,0"/></g><path class="cls-4" d="M492,420.25c12.59,0,20.85-8.35,20.85-20.82s-8.26-20.81-20.85-20.81-25,8.25-25,20.81,12.54,20.82,25,20.82ZM375.46,378.62c-12.51,0-25.11,8.26-25.11,20.81s12.6,20.82,25.11,20.82,20.79-8.35,20.79-20.82-8.3-20.81-20.79-20.81ZM546.2,499.47c-8.25,0-16.66,8.35-16.66,16.64s8.4,16.68,16.66,16.68c12.64,0,20.85-8.25,20.85-16.68s-8.21-16.64-20.85-16.64Zm91.64,0c-8.24,0-16.57,8.35-16.57,16.64s8.37,16.68,16.57,16.68c12.53,0,20.84-8.25,20.84-16.68s-8.31-16.64-20.84-16.64Zm0,0"/></svg>