<svg id="图层_1" data-name="图层 1" xmlns="http://www.w3.org/2000/svg" xmlns:xlink="http://www.w3.org/1999/xlink" viewBox="0 0 1000 1000"><defs><style>.cls-1{fill:none;}.cls-2{clip-path:url(#clip-path);}.cls-3{fill:#999;}</style><clipPath id="clip-path"><rect class="cls-1" x="90" y="91" width="818.88" height="819.76"/></clipPath></defs><title>画板 2</title><g class="cls-2"><path class="cls-3" d="M553.46,500c-9.34,0-18.68,8.67-18.68,19.34,0,8.67,9.34,17.34,18.68,17.34,14,0,24-8.67,24-17.34,0-10.67-10-19.34-24-19.34Zm-61.37-90.06c14.68,0,24-9.34,24-23.35,0-14.67-9.34-23.35-24-23.35-14,0-27.35,8.68-27.35,23.35,0,14,13.35,23.35,27.35,23.35Zm7.34-319C273.31,90.9,90,274.21,90,500.33S273.31,909.76,499.43,909.76,908.86,726.45,908.86,500.33,725.55,90.9,499.43,90.9ZM422.05,604.06c-24.68,0-42.69-4-66-10.67l-67.38,34L308,570c-47.36-33.35-75.38-75.38-75.38-126.74,0-90.73,85.39-160.1,189.45-160.1,92.05,0,174.11,54.7,190.12,132.08a92.33,92.33,0,0,0-18-2c-90.73,0-160.77,68-160.77,150.09a160.63,160.63,0,0,0,5.34,40,141,141,0,0,1-16.68.66Zm278.17,65.37,13.34,48-50.7-28.68c-19.34,4-38,10-57.36,10-89.39,0-160.1-61.36-160.1-137.41S516.11,424,605.5,424c84.71,0,160.76,61.37,160.76,137.42,0,42.69-28.68,80.71-66,108.06ZM360,363.24c-14,0-28.68,8.68-28.68,23.35,0,14,14.67,23.35,28.68,23.35,13.35,0,24-9.34,24-23.35,0-14.67-10.67-23.35-24-23.35ZM658.19,500c-10,0-18.67,8.67-18.67,19.34,0,8.67,8.67,17.34,18.67,17.34,13.34,0,23.35-8.67,23.35-17.34,0-10.67-10-19.34-23.35-19.34Zm0,0"/></g></svg>