<svg id="图层_1" data-name="图层 1" xmlns="http://www.w3.org/2000/svg" xmlns:xlink="http://www.w3.org/1999/xlink" viewBox="0 0 1000 1000"><defs><style>.cls-1{fill:none;}.cls-2{clip-path:url(#clip-path);}.cls-3{fill:#999;}</style><clipPath id="clip-path"><rect class="cls-1" x="90" y="91" width="818.88" height="818.8"/></clipPath></defs><title>画板 1</title><g class="cls-2"><path class="cls-3" d="M741,465.2a145.85,145.85,0,0,1-84.24,62.85l-2.73.78a62.22,62.22,0,0,1-17,2.59c-24.94,0-39-16.84-31.45-37.64,5.51-15.19,20.07-28,37.87-34,27.49-10,46.74-32.86,46.74-59.49,0-35.81-35-64.89-78.05-64.89s-78,29.08-78,64.89V599.37c0,48-27.76,90-69.27,113.64a157,157,0,0,1-78.1,20.53c-81.14,0-147.23-60.17-147.23-134.17A124,124,0,0,1,258,534.52c18.2-29.86,48.47-52.66,84.74-63h.14a63,63,0,0,1,18.66-3c25.12,0,39.36,16.93,31.72,37.77-5.19,14.15-19.12,26.4-35.23,32.86-1.91.64-3.82,1.36-5.69,2.09-25.8,10.65-43.46,32.68-43.46,58.17,0,35.86,34.86,64.94,78,64.94s78-29.13,78-64.94V400.3c0-47.83,27.8-89.84,69.26-113.64a157,157,0,0,1,78.1-20.48c81.19,0,147.28,60.12,147.28,134.12A123.82,123.82,0,0,1,741,465.2M499.51,90.87C273.32,90.87,90,274,90,499.84s183.32,409,409.51,409S909,725.71,909,499.84s-183.32-409-409.46-409"/></g></svg>